<svg id="svg" version="1.1" xmlns="http://www.w3.org/2000/svg" xmlns:xlink="http://www.w3.org/1999/xlink" width="400" height="400" viewBox="0, 0, 400,400"><g id="svgg"><path id="path0" d="M198.349 65.473 C 196.332 66.725,196.000 67.858,196.000 73.495 L 196.000 78.667 197.300 80.130 C 199.672 82.800,203.709 82.332,205.320 79.200 C 205.926 78.022,206.021 76.985,205.920 72.669 L 205.800 67.538 204.306 66.169 C 202.592 64.599,200.207 64.320,198.349 65.473 M199.000 95.650 C 195.561 96.440,192.823 98.522,191.368 101.454 C 190.311 103.582,189.369 165.563,190.384 166.190 C 190.595 166.320,191.720 166.106,192.884 165.713 C 195.948 164.680,206.111 164.690,209.091 165.729 C 210.241 166.130,211.366 166.345,211.591 166.206 C 212.052 165.921,212.081 146.864,211.661 119.800 L 211.400 103.000 210.336 101.200 C 207.824 96.952,203.196 94.686,199.000 95.650 M232.160 195.500 C 232.172 202.234,231.464 206.117,229.582 209.634 C 229.013 210.696,276.366 210.842,279.910 209.790 C 288.294 207.300,290.493 196.526,283.678 191.327 C 280.377 188.810,280.267 188.800,255.001 188.800 L 232.148 188.800 232.160 195.500 M70.562 193.612 C 66.845 195.451,66.793 200.560,70.471 202.436 C 72.379 203.410,79.636 203.530,81.804 202.624 C 85.727 200.985,85.700 195.056,81.763 193.410 C 79.465 192.450,72.661 192.572,70.562 193.612 M320.028 193.501 C 316.026 195.541,316.026 200.459,320.028 202.499 C 322.261 203.638,329.825 203.504,331.641 202.295 C 335.298 199.859,334.922 195.013,330.946 193.352 C 328.934 192.511,321.778 192.609,320.028 193.501 M199.314 314.440 C 195.184 315.647,194.302 328.009,198.165 330.541 C 202.375 333.299,205.697 330.347,205.931 323.639 C 206.199 315.974,204.091 313.044,199.314 314.440 " stroke="none" fill="#545454" fill-rule="evenodd"></path><path id="path1" d="M195.344 73.200 C 195.344 75.290,195.412 76.145,195.494 75.100 C 195.576 74.055,195.576 72.345,195.494 71.300 C 195.412 70.255,195.344 71.110,195.344 73.200 M188.054 132.616 C 187.314 132.937,186.289 133.200,185.778 133.200 C 185.266 133.200,184.736 133.380,184.600 133.600 C 184.464 133.820,183.821 134.000,183.171 134.000 C 182.035 134.000,181.682 134.116,179.705 135.138 C 179.213 135.392,178.536 135.600,178.200 135.600 C 177.864 135.600,177.277 135.764,176.895 135.965 C 176.513 136.165,174.850 136.980,173.200 137.776 C 159.823 144.227,149.044 154.885,142.835 167.800 C 141.013 171.589,140.774 172.147,140.000 174.400 C 139.736 175.170,139.371 176.160,139.190 176.600 C 139.009 177.040,138.757 177.895,138.630 178.500 C 138.504 179.105,138.296 180.095,138.170 180.700 C 138.043 181.305,137.782 182.160,137.589 182.600 C 136.349 185.431,136.349 206.969,137.589 209.800 C 137.782 210.240,138.043 211.095,138.170 211.700 C 138.296 212.305,138.504 213.295,138.630 213.900 C 138.757 214.505,139.009 215.360,139.190 215.800 C 139.371 216.240,139.736 217.230,140.000 218.000 C 140.773 220.252,141.013 220.810,142.833 224.600 C 143.785 226.580,145.066 228.952,145.681 229.872 C 146.297 230.792,146.800 231.645,146.800 231.767 C 146.800 231.890,147.060 232.308,147.378 232.695 C 147.695 233.083,148.793 234.528,149.816 235.906 C 153.545 240.927,162.145 248.619,167.400 251.631 C 170.612 253.473,176.616 256.383,177.220 256.392 C 177.561 256.396,178.011 256.549,178.220 256.730 C 178.429 256.912,179.410 257.293,180.400 257.576 C 181.390 257.859,182.560 258.237,183.000 258.415 C 184.607 259.067,189.377 259.947,194.200 260.483 C 200.565 261.189,203.416 261.082,213.600 259.753 C 214.590 259.624,215.571 259.356,215.780 259.159 C 215.989 258.962,216.743 258.800,217.456 258.800 C 218.169 258.800,218.864 258.620,219.000 258.400 C 219.136 258.180,219.676 258.000,220.200 258.000 C 220.724 258.000,221.264 257.820,221.400 257.600 C 221.536 257.380,221.999 257.200,222.429 257.200 C 222.859 257.200,223.523 257.035,223.905 256.834 C 224.287 256.632,225.320 256.163,226.200 255.791 C 229.566 254.367,232.262 253.009,233.872 251.925 C 234.792 251.306,235.646 250.800,235.770 250.800 C 237.109 250.800,248.818 240.163,251.840 236.200 C 253.985 233.387,257.823 227.453,258.566 225.800 C 258.962 224.920,259.695 223.300,260.196 222.200 C 260.696 221.100,261.325 219.570,261.593 218.800 C 261.861 218.030,262.222 217.040,262.395 216.600 C 262.567 216.160,262.927 214.990,263.193 214.000 C 263.460 213.010,263.814 211.930,263.980 211.600 C 264.247 211.070,262.203 211.013,246.547 211.108 L 228.811 211.216 228.562 212.208 C 228.425 212.754,228.166 213.200,227.986 213.200 C 227.806 213.200,227.600 213.441,227.529 213.736 C 227.060 215.681,221.223 221.367,217.449 223.557 C 213.718 225.721,213.142 226.000,212.411 226.000 C 211.991 226.000,211.536 226.180,211.400 226.400 C 211.264 226.620,210.659 226.800,210.056 226.800 C 209.453 226.800,208.789 226.960,208.580 227.157 C 207.017 228.623,191.548 227.934,190.571 226.354 C 190.451 226.159,190.009 226.000,189.589 226.000 C 189.168 226.000,188.189 225.640,187.412 225.200 C 186.635 224.760,185.325 224.022,184.500 223.560 C 180.934 221.563,175.645 216.474,173.994 213.451 C 171.367 208.640,170.800 207.452,170.800 206.754 C 170.800 206.333,170.642 205.677,170.449 205.295 C 168.673 201.779,168.673 190.621,170.449 187.105 C 170.642 186.723,170.800 186.136,170.800 185.801 C 170.800 185.194,172.353 181.581,172.778 181.200 C 172.901 181.090,173.268 180.460,173.593 179.800 C 174.473 178.018,178.583 173.034,179.868 172.192 C 180.483 171.789,181.440 171.032,181.993 170.511 C 182.547 169.989,183.630 169.265,184.400 168.902 C 185.170 168.539,185.890 168.142,186.000 168.021 C 186.457 167.516,188.038 166.800,188.695 166.800 C 189.358 166.800,189.400 165.756,189.400 149.400 C 189.400 139.830,189.400 132.007,189.400 132.016 C 189.400 132.024,188.794 132.294,188.054 132.616 M212.308 149.521 L 212.200 166.642 213.136 166.720 C 213.651 166.762,214.579 167.158,215.198 167.599 C 215.817 168.039,216.441 168.400,216.584 168.400 C 217.755 168.400,223.809 173.530,225.823 176.229 C 226.468 177.093,227.124 177.896,227.282 178.014 C 227.830 178.423,230.800 184.516,230.800 185.232 C 230.800 185.628,230.980 186.064,231.200 186.200 C 231.420 186.336,231.600 186.793,231.600 187.215 C 231.600 187.959,232.140 187.987,248.551 188.092 L 265.502 188.200 264.955 186.400 C 264.655 185.410,264.407 184.163,264.404 183.628 C 264.402 183.094,264.232 182.104,264.027 181.428 C 263.822 180.753,263.441 179.390,263.182 178.400 C 262.922 177.410,262.567 176.240,262.395 175.800 C 262.222 175.360,261.864 174.370,261.598 173.600 C 261.146 172.289,259.205 167.934,258.320 166.245 C 257.345 164.384,256.247 162.516,255.553 161.538 C 255.139 160.954,254.800 160.279,254.800 160.038 C 254.800 159.797,254.659 159.600,254.486 159.600 C 254.314 159.600,253.880 159.105,253.521 158.500 C 252.837 157.344,252.548 156.987,248.883 152.784 C 245.787 149.232,236.248 141.237,235.072 141.208 C 234.892 141.204,233.992 140.698,233.072 140.084 C 230.756 138.539,224.463 135.600,223.471 135.600 C 223.175 135.600,222.810 135.477,222.659 135.326 C 222.220 134.887,219.481 134.013,218.524 134.006 C 218.042 134.003,217.536 133.820,217.400 133.600 C 217.264 133.380,216.544 133.200,215.800 133.200 C 215.056 133.200,214.336 133.020,214.200 132.800 C 214.064 132.580,213.607 132.400,213.185 132.400 C 212.441 132.400,212.413 132.942,212.308 149.521 M74.512 192.695 C 75.564 192.777,77.184 192.776,78.112 192.692 C 79.040 192.608,78.180 192.541,76.200 192.542 C 74.220 192.543,73.460 192.612,74.512 192.695 M323.700 192.694 C 324.745 192.776,326.455 192.776,327.500 192.694 C 328.545 192.612,327.690 192.544,325.600 192.544 C 323.510 192.544,322.655 192.612,323.700 192.694 M195.344 322.800 C 195.344 324.890,195.412 325.745,195.494 324.700 C 195.576 323.655,195.576 321.945,195.494 320.900 C 195.412 319.855,195.344 320.710,195.344 322.800 " stroke="none" fill="#acacac" fill-rule="evenodd"></path><path id="path2" d="M188.400 53.600 C 188.400 53.835,187.008 54.000,185.024 54.000 C 183.167 54.000,181.536 54.180,181.400 54.400 C 181.264 54.620,180.083 54.800,178.776 54.800 C 177.459 54.800,176.400 54.978,176.400 55.200 C 176.400 55.420,175.421 55.600,174.224 55.600 C 173.027 55.600,171.936 55.780,171.800 56.000 C 171.664 56.220,170.843 56.400,169.976 56.400 C 169.109 56.400,168.400 56.580,168.400 56.800 C 168.400 57.020,167.680 57.200,166.800 57.200 C 165.920 57.200,165.200 57.380,165.200 57.600 C 165.200 57.820,164.480 58.000,163.600 58.000 C 162.720 58.000,162.000 58.180,162.000 58.400 C 162.000 58.620,161.280 58.800,160.400 58.800 C 159.520 58.800,158.800 58.980,158.800 59.200 C 158.800 59.420,158.260 59.600,157.600 59.600 C 156.940 59.600,156.400 59.780,156.400 60.000 C 156.400 60.220,155.860 60.400,155.200 60.400 C 154.540 60.400,154.000 60.580,154.000 60.800 C 154.000 61.020,153.561 61.200,153.024 61.200 C 152.487 61.200,151.936 61.380,151.800 61.600 C 151.664 61.820,151.203 62.000,150.776 62.000 C 150.349 62.000,150.000 62.180,150.000 62.400 C 150.000 62.620,149.460 62.800,148.800 62.800 C 148.140 62.800,147.600 62.980,147.600 63.200 C 147.600 63.420,147.142 63.600,146.583 63.600 C 146.024 63.600,145.180 63.960,144.708 64.400 C 144.236 64.840,143.433 65.200,142.925 65.200 C 142.416 65.200,142.000 65.380,142.000 65.600 C 142.000 65.820,141.640 66.000,141.200 66.000 C 140.760 66.000,140.400 66.180,140.400 66.400 C 140.400 66.620,140.040 66.800,139.600 66.800 C 139.160 66.800,138.800 66.980,138.800 67.200 C 138.800 67.420,138.440 67.600,138.000 67.600 C 137.560 67.600,137.200 67.780,137.200 68.000 C 137.200 68.220,136.851 68.400,136.424 68.400 C 135.997 68.400,135.536 68.580,135.400 68.800 C 135.264 69.020,134.837 69.200,134.452 69.200 C 134.066 69.200,133.364 69.560,132.892 70.000 C 132.420 70.440,131.756 70.800,131.417 70.800 C 131.078 70.800,130.800 70.980,130.800 71.200 C 130.800 71.420,130.558 71.600,130.262 71.600 C 129.966 71.600,129.398 71.960,129.000 72.400 C 128.602 72.840,127.944 73.200,127.538 73.200 C 127.132 73.200,126.800 73.380,126.800 73.600 C 126.800 73.820,126.506 74.000,126.147 74.000 C 125.788 74.000,125.203 74.324,124.847 74.720 C 124.491 75.117,123.545 75.745,122.745 76.118 C 121.945 76.490,120.712 77.335,120.004 77.996 C 119.297 78.656,118.529 79.080,118.298 78.937 C 118.051 78.784,117.995 78.868,118.162 79.138 C 118.331 79.412,118.193 79.600,117.824 79.600 C 117.481 79.600,117.200 79.750,117.200 79.932 C 117.200 80.115,116.705 80.519,116.100 80.830 C 115.495 81.140,114.709 81.711,114.353 82.097 C 113.997 82.484,113.524 82.800,113.301 82.800 C 113.079 82.800,112.200 83.476,111.348 84.302 C 110.497 85.128,109.170 86.249,108.400 86.792 C 107.630 87.336,106.010 88.784,104.800 90.010 C 103.590 91.236,102.272 92.364,101.872 92.518 C 101.401 92.698,101.189 93.114,101.272 93.698 L 101.400 94.600 128.383 94.703 C 145.569 94.768,155.510 94.950,155.763 95.203 C 155.981 95.421,156.486 95.600,156.885 95.600 C 157.566 95.600,159.155 96.319,159.600 96.829 C 159.710 96.955,160.115 97.175,160.500 97.317 C 160.885 97.459,161.200 97.851,161.200 98.187 C 161.200 98.524,161.380 98.800,161.600 98.800 C 161.820 98.800,162.000 99.160,162.000 99.600 C 162.000 100.040,162.180 100.400,162.400 100.400 C 162.620 100.400,162.800 100.904,162.800 101.520 C 162.800 102.136,162.996 102.836,163.235 103.075 C 163.548 103.388,163.548 103.585,163.235 103.778 C 162.996 103.926,162.800 104.728,162.800 105.560 C 162.800 107.208,159.948 110.800,158.640 110.800 C 158.288 110.800,158.000 110.980,158.000 111.200 C 158.000 111.420,157.496 111.600,156.880 111.600 C 156.264 111.600,155.581 111.779,155.362 111.998 C 155.102 112.258,131.736 112.398,87.685 112.402 L 20.405 112.409 18.703 113.422 C 17.766 113.979,16.685 114.538,16.300 114.664 C 15.915 114.790,15.600 115.108,15.600 115.371 C 15.600 115.634,15.240 116.236,14.800 116.708 C 14.360 117.180,14.000 117.833,14.000 118.160 C 14.000 118.486,13.820 118.864,13.600 119.000 C 13.072 119.326,13.072 126.000,13.600 126.000 C 13.820 126.000,14.000 126.360,14.000 126.800 C 14.000 127.240,14.180 127.600,14.400 127.600 C 14.620 127.600,14.800 127.930,14.800 128.332 C 14.800 128.735,15.244 129.302,15.786 129.593 C 16.329 129.883,16.661 130.301,16.525 130.522 C 16.388 130.743,16.473 130.802,16.712 130.654 C 16.952 130.506,17.602 130.838,18.156 131.392 L 19.164 132.400 59.782 132.400 C 86.594 132.400,100.400 132.536,100.400 132.800 C 100.400 133.020,101.234 133.200,102.253 133.200 C 103.503 133.200,104.319 133.428,104.759 133.900 C 105.118 134.285,105.757 134.792,106.179 135.027 C 106.601 135.261,107.139 135.792,107.373 136.205 C 107.608 136.618,108.115 137.315,108.500 137.754 C 109.285 138.647,109.544 144.400,108.800 144.400 C 108.580 144.400,108.400 144.760,108.400 145.200 C 108.400 145.640,108.241 146.000,108.047 146.000 C 107.852 146.000,107.610 146.315,107.507 146.700 C 107.316 147.420,104.365 149.200,103.362 149.200 C 103.053 149.200,102.800 149.380,102.800 149.600 C 102.800 149.861,96.321 150.000,84.163 150.000 C 65.862 150.000,65.521 150.014,65.316 150.800 C 65.201 151.240,64.948 151.600,64.753 151.600 C 64.559 151.600,64.400 152.140,64.400 152.800 C 64.400 153.460,64.220 154.000,64.000 154.000 C 63.780 154.000,63.600 154.720,63.600 155.600 C 63.600 156.480,63.420 157.200,63.200 157.200 C 62.980 157.200,62.800 157.740,62.800 158.400 C 62.800 159.060,62.620 159.600,62.400 159.600 C 62.180 159.600,62.000 160.320,62.000 161.200 C 62.000 162.080,61.820 162.800,61.600 162.800 C 61.380 162.800,61.200 163.801,61.200 165.024 C 61.200 166.247,61.053 167.156,60.874 167.045 C 60.694 166.935,60.504 167.689,60.452 168.722 C 60.400 169.755,60.187 170.660,59.979 170.733 C 59.770 170.807,59.600 171.921,59.600 173.210 C 59.600 174.498,59.420 175.664,59.200 175.800 C 58.980 175.936,58.800 177.466,58.800 179.200 C 58.800 180.934,58.620 182.464,58.400 182.600 C 57.854 182.938,57.854 209.462,58.400 209.800 C 58.620 209.936,58.800 211.556,58.800 213.400 C 58.800 215.244,58.980 216.864,59.200 217.000 C 59.420 217.136,59.600 218.317,59.600 219.624 C 59.600 220.941,59.778 222.000,60.000 222.000 C 60.220 222.000,60.400 222.900,60.400 224.000 C 60.400 225.100,60.580 226.000,60.800 226.000 C 61.020 226.000,61.200 226.709,61.200 227.576 C 61.200 228.443,61.380 229.264,61.600 229.400 C 61.820 229.536,62.000 230.087,62.000 230.624 L 62.000 231.600 47.200 231.600 C 37.600 231.600,32.400 231.741,32.400 232.000 C 32.400 232.220,32.144 232.400,31.832 232.400 C 31.092 232.400,27.600 235.892,27.600 236.632 C 27.600 236.944,27.420 237.200,27.200 237.200 C 26.339 237.200,26.711 245.759,27.600 246.400 C 28.040 246.717,28.400 247.215,28.400 247.506 C 28.400 248.138,30.183 250.000,30.787 250.000 C 31.278 250.000,32.896 250.861,33.220 251.295 C 33.342 251.457,46.482 251.651,62.420 251.726 C 89.843 251.855,94.000 252.002,94.000 252.845 C 94.000 253.040,94.291 253.200,94.646 253.200 C 95.393 253.200,98.000 255.903,98.000 256.678 C 98.000 256.965,98.180 257.200,98.400 257.200 C 98.620 257.200,98.800 257.704,98.800 258.320 C 98.800 258.936,99.016 259.656,99.280 259.920 C 99.653 260.293,99.653 260.507,99.280 260.880 C 99.016 261.144,98.800 261.864,98.800 262.480 C 98.800 263.096,98.620 263.600,98.400 263.600 C 98.180 263.600,98.000 263.864,98.000 264.187 C 98.000 265.022,95.535 267.600,94.736 267.600 C 94.368 267.600,94.007 267.778,93.933 267.997 C 93.860 268.215,93.318 268.433,92.729 268.481 C 92.140 268.530,91.745 268.712,91.852 268.885 C 91.960 269.058,88.987 269.200,85.247 269.200 C 81.507 269.200,78.347 269.363,78.223 269.562 C 77.961 269.986,79.596 273.200,80.074 273.200 C 80.253 273.200,80.400 273.436,80.400 273.725 C 80.400 274.013,80.760 274.636,81.200 275.108 C 81.640 275.580,82.000 276.204,82.000 276.495 C 82.000 276.786,82.360 277.283,82.800 277.600 C 83.240 277.917,83.600 278.392,83.600 278.654 C 83.600 278.917,84.140 279.642,84.800 280.265 C 85.460 280.888,86.000 281.596,86.000 281.839 C 86.000 282.082,86.540 282.846,87.200 283.537 C 87.860 284.228,88.400 284.968,88.400 285.182 C 88.400 285.397,88.760 285.765,89.200 286.000 C 89.640 286.235,90.000 286.602,90.000 286.814 C 90.000 287.026,90.720 287.941,91.600 288.848 C 92.480 289.755,93.200 290.648,93.200 290.834 C 93.200 291.268,107.233 305.200,107.670 305.200 C 107.851 305.200,108.741 305.920,109.648 306.800 C 110.555 307.680,111.480 308.400,111.705 308.400 C 111.930 308.400,112.629 308.940,113.260 309.600 C 113.891 310.260,114.559 310.800,114.744 310.800 C 114.930 310.800,115.646 311.340,116.337 312.000 C 117.028 312.660,117.854 313.200,118.174 313.200 C 118.493 313.200,118.990 313.515,119.277 313.900 C 119.565 314.285,120.295 314.855,120.900 315.168 C 121.505 315.480,122.000 315.885,122.000 316.068 C 122.000 316.250,122.320 316.400,122.712 316.400 C 123.103 316.400,123.683 316.760,124.000 317.200 C 124.317 317.640,124.882 318.000,125.255 318.000 C 125.628 318.000,125.993 318.135,126.067 318.300 C 126.140 318.465,127.055 319.033,128.100 319.563 C 129.145 320.092,130.000 320.677,130.000 320.863 C 130.000 321.048,130.360 321.200,130.800 321.200 C 131.240 321.200,131.600 321.380,131.600 321.600 C 131.600 321.820,131.878 322.000,132.217 322.000 C 132.556 322.000,133.220 322.360,133.692 322.800 C 134.164 323.240,134.787 323.600,135.075 323.600 C 135.364 323.600,135.600 323.780,135.600 324.000 C 135.600 324.220,135.960 324.400,136.400 324.400 C 136.840 324.400,137.200 324.580,137.200 324.800 C 137.200 325.020,137.549 325.200,137.976 325.200 C 138.403 325.200,138.864 325.380,139.000 325.600 C 139.136 325.820,139.687 326.000,140.224 326.000 C 140.761 326.000,141.200 326.180,141.200 326.400 C 141.200 326.620,141.560 326.800,142.000 326.800 C 142.440 326.800,142.800 326.980,142.800 327.200 C 142.800 327.420,143.160 327.600,143.600 327.600 C 144.040 327.600,144.400 327.780,144.400 328.000 C 144.400 328.220,144.749 328.400,145.176 328.400 C 145.603 328.400,146.064 328.580,146.200 328.800 C 146.336 329.020,146.887 329.200,147.424 329.200 C 147.961 329.200,148.400 329.380,148.400 329.600 C 148.400 329.820,148.940 330.000,149.600 330.000 C 150.260 330.000,150.800 330.180,150.800 330.400 C 150.800 330.620,151.160 330.800,151.600 330.800 C 152.040 330.800,152.400 330.980,152.400 331.200 C 152.400 331.420,153.041 331.600,153.824 331.600 C 154.607 331.600,155.160 331.742,155.052 331.915 C 154.945 332.088,155.321 332.269,155.888 332.316 C 156.455 332.363,157.117 332.542,157.360 332.716 C 157.602 332.889,158.340 333.085,159.000 333.153 C 159.660 333.221,160.260 333.439,160.333 333.638 C 160.407 333.837,160.992 334.000,161.633 334.000 C 162.275 334.000,162.800 334.180,162.800 334.400 C 162.800 334.620,163.520 334.800,164.400 334.800 C 165.280 334.800,166.000 334.980,166.000 335.200 C 166.000 335.420,166.709 335.600,167.576 335.600 C 168.443 335.600,169.264 335.780,169.400 336.000 C 169.536 336.220,170.447 336.400,171.424 336.400 C 172.401 336.400,173.200 336.580,173.200 336.800 C 173.200 337.026,174.341 337.200,175.824 337.200 C 177.267 337.200,178.353 337.352,178.239 337.537 C 178.124 337.723,179.238 337.913,180.715 337.960 C 182.192 338.007,183.571 338.216,183.780 338.423 C 183.989 338.630,186.363 338.800,189.056 338.800 C 191.989 338.800,194.055 338.965,194.208 339.213 C 194.521 339.719,205.325 339.685,206.671 339.173 C 207.316 338.928,207.600 338.963,207.600 339.290 C 207.600 339.645,207.718 339.642,208.080 339.280 C 208.399 338.961,210.142 338.800,213.280 338.800 C 216.160 338.800,218.000 338.644,218.000 338.400 C 218.000 338.171,219.200 338.000,220.800 338.000 C 222.340 338.000,223.600 337.836,223.600 337.636 C 223.600 337.435,224.635 337.170,225.900 337.047 C 230.780 336.571,232.400 336.311,232.400 336.003 C 232.400 335.828,233.120 335.575,234.000 335.442 C 234.880 335.309,236.320 335.091,237.200 334.958 C 238.080 334.825,238.800 334.555,238.800 334.358 C 238.800 334.161,239.419 334.000,240.176 334.000 C 240.933 334.000,241.664 333.820,241.800 333.600 C 241.936 333.380,242.577 333.200,243.224 333.200 C 243.871 333.200,244.400 333.020,244.400 332.800 C 244.400 332.580,244.925 332.400,245.567 332.400 C 246.208 332.400,246.793 332.222,246.867 332.003 C 246.940 331.785,247.482 331.567,248.071 331.519 C 248.660 331.470,249.055 331.288,248.948 331.115 C 248.840 330.942,249.393 330.800,250.176 330.800 C 250.959 330.800,251.600 330.620,251.600 330.400 C 251.600 330.180,252.039 330.000,252.576 330.000 C 253.113 330.000,253.664 329.820,253.800 329.600 C 253.936 329.380,254.397 329.200,254.824 329.200 C 255.251 329.200,255.600 329.020,255.600 328.800 C 255.600 328.580,255.960 328.400,256.400 328.400 C 256.840 328.400,257.200 328.220,257.200 328.000 C 257.200 327.780,257.605 327.596,258.100 327.591 C 258.595 327.586,259.450 327.230,260.000 326.800 C 260.550 326.370,261.405 326.014,261.900 326.009 C 262.395 326.004,262.800 325.820,262.800 325.600 C 262.800 325.380,263.160 325.200,263.600 325.200 C 264.040 325.200,264.400 325.020,264.400 324.800 C 264.400 324.580,264.760 324.400,265.200 324.400 C 265.640 324.400,266.000 324.253,266.000 324.074 C 266.000 323.633,269.109 322.000,269.949 322.000 C 270.320 322.000,270.883 321.640,271.200 321.200 C 271.517 320.760,272.014 320.400,272.305 320.400 C 272.596 320.400,273.220 320.040,273.692 319.600 C 274.164 319.160,274.849 318.800,275.213 318.800 C 275.578 318.800,276.202 318.440,276.600 318.000 C 276.998 317.560,277.613 317.200,277.966 317.200 C 278.319 317.200,278.832 316.840,279.107 316.400 C 279.382 315.960,279.926 315.600,280.315 315.600 C 280.705 315.600,281.283 315.240,281.600 314.800 C 281.917 314.360,282.425 314.000,282.728 314.000 C 283.031 314.000,283.783 313.460,284.400 312.800 C 285.017 312.140,285.737 311.600,286.000 311.600 C 286.263 311.600,286.983 311.060,287.600 310.400 C 288.217 309.740,288.926 309.200,289.177 309.200 C 289.427 309.200,290.317 308.480,291.154 307.600 C 291.991 306.720,292.872 306.000,293.112 306.000 C 293.789 306.000,310.800 288.856,310.800 288.174 C 310.800 288.044,311.520 287.246,312.400 286.400 C 313.280 285.554,314.000 284.695,314.000 284.491 C 314.000 284.286,314.540 283.554,315.200 282.863 C 315.860 282.172,316.400 281.402,316.400 281.151 C 316.400 280.899,316.740 280.399,317.155 280.039 C 318.182 279.148,319.669 276.436,319.384 275.974 C 319.248 275.754,313.446 275.600,305.244 275.600 C 291.396 275.600,291.327 275.596,289.459 274.650 C 287.371 273.593,285.200 271.530,285.200 270.604 C 285.200 270.272,285.020 270.000,284.800 270.000 C 284.222 270.000,284.305 264.956,284.900 263.916 C 285.562 262.759,288.383 259.929,289.501 259.300 C 290.189 258.913,297.006 258.800,319.771 258.800 C 338.927 258.800,349.239 258.661,349.400 258.400 C 349.536 258.180,350.627 258.000,351.824 258.000 C 353.021 258.000,354.000 257.820,354.000 257.600 C 354.000 257.380,354.225 257.196,354.500 257.191 C 355.079 257.180,357.996 254.644,358.009 254.139 C 358.014 253.953,358.370 253.350,358.800 252.800 C 359.667 251.692,360.014 244.400,359.200 244.400 C 358.980 244.400,358.800 244.040,358.800 243.600 C 358.800 243.160,358.664 242.800,358.498 242.800 C 358.331 242.800,357.961 242.270,357.674 241.623 C 357.388 240.976,356.624 240.212,355.977 239.926 C 355.330 239.639,354.800 239.269,354.800 239.102 C 354.800 238.936,354.451 238.800,354.024 238.800 C 353.597 238.800,353.136 238.620,353.000 238.400 C 352.850 238.157,349.863 238.000,345.376 238.000 C 338.267 238.000,338.000 237.971,338.000 237.200 C 338.000 236.760,338.161 236.400,338.358 236.400 C 338.555 236.400,338.815 235.725,338.935 234.900 C 339.340 232.134,339.688 230.800,340.007 230.800 C 340.181 230.800,340.430 229.900,340.561 228.800 C 340.693 227.700,340.907 225.900,341.039 224.800 C 341.170 223.700,341.440 222.800,341.639 222.800 C 341.837 222.800,342.000 221.799,342.000 220.576 C 342.000 219.353,342.154 218.448,342.342 218.564 C 342.530 218.680,342.720 217.386,342.764 215.688 C 342.809 213.989,343.015 212.429,343.222 212.220 C 343.430 212.011,343.600 209.266,343.600 206.120 C 343.600 202.573,343.752 200.400,344.000 200.400 C 344.520 200.400,344.535 192.514,344.016 192.333 C 343.797 192.257,343.608 189.658,343.577 186.300 C 343.546 182.903,343.370 180.495,343.161 180.624 C 342.957 180.750,342.800 179.361,342.800 177.424 C 342.800 175.408,342.636 174.000,342.400 174.000 C 342.180 174.000,342.000 173.640,342.000 173.200 C 342.000 172.419,342.267 172.400,353.167 172.400 C 359.308 172.400,364.393 172.265,364.467 172.100 C 364.630 171.733,366.753 170.430,367.663 170.138 C 368.028 170.022,368.425 169.628,368.545 169.263 C 368.666 168.898,369.223 167.830,369.782 166.889 C 370.855 165.086,371.335 158.800,370.400 158.800 C 370.180 158.800,370.000 158.440,370.000 158.000 C 370.000 157.560,369.820 157.200,369.600 157.200 C 369.380 157.200,369.200 156.870,369.200 156.468 C 369.200 156.065,368.756 155.498,368.214 155.207 C 367.671 154.917,367.339 154.499,367.475 154.278 C 367.612 154.057,367.527 153.998,367.288 154.146 C 367.048 154.294,366.398 153.962,365.844 153.408 L 364.836 152.400 336.618 152.400 C 318.073 152.400,308.400 152.263,308.400 152.000 C 308.400 151.780,307.624 151.600,306.675 151.600 C 305.504 151.600,304.676 151.344,304.092 150.800 C 303.620 150.360,303.067 150.000,302.863 150.000 C 302.659 150.000,302.171 149.510,301.778 148.910 C 301.385 148.311,300.735 147.467,300.332 147.035 C 299.518 146.161,299.230 140.400,300.000 140.400 C 300.220 140.400,300.400 140.124,300.400 139.787 C 300.400 139.167,302.908 136.408,303.487 136.391 C 303.659 136.386,304.250 136.030,304.800 135.600 C 305.742 134.863,306.507 134.817,317.900 134.809 C 327.560 134.802,330.000 134.695,330.000 134.280 C 330.000 133.544,329.059 131.607,328.700 131.603 C 328.535 131.601,328.400 131.240,328.400 130.800 C 328.400 130.360,328.265 129.999,328.100 129.997 C 327.789 129.994,326.800 128.097,326.800 127.504 C 326.800 127.318,326.440 126.780,326.000 126.308 C 325.560 125.836,325.200 125.168,325.199 124.825 C 325.199 124.481,324.659 123.570,324.000 122.800 C 323.341 122.030,322.797 121.220,322.792 121.000 C 322.787 120.780,322.430 120.150,322.000 119.600 C 321.570 119.050,321.214 118.325,321.209 117.988 C 321.204 117.652,320.840 117.117,320.400 116.800 C 319.960 116.483,319.600 116.009,319.600 115.746 C 319.600 115.483,318.965 114.615,318.188 113.815 C 317.412 113.016,316.900 112.162,317.050 111.919 C 317.215 111.652,317.141 111.589,316.862 111.762 C 316.588 111.931,316.400 111.793,316.400 111.424 C 316.400 111.081,316.220 110.800,316.000 110.800 C 315.780 110.800,315.600 110.559,315.600 110.264 C 315.600 109.969,314.880 108.993,314.000 108.095 C 313.120 107.197,312.400 106.334,312.400 106.177 C 312.400 106.020,311.995 105.501,311.500 105.024 C 309.979 103.558,308.400 101.627,308.400 101.231 C 308.400 100.759,299.361 91.600,298.894 91.600 C 298.705 91.600,298.151 91.060,297.663 90.400 C 297.175 89.740,296.590 89.200,296.362 89.200 C 296.134 89.200,295.071 88.300,294.000 87.200 C 292.929 86.100,291.905 85.198,291.726 85.196 C 291.082 85.188,288.031 82.502,288.312 82.190 C 288.471 82.015,288.404 81.983,288.165 82.119 C 287.926 82.255,287.071 81.744,286.265 80.983 C 285.458 80.222,284.574 79.594,284.299 79.587 C 283.530 79.568,282.376 78.561,282.706 78.196 C 282.868 78.018,282.787 77.994,282.526 78.144 C 282.265 78.293,281.635 78.007,281.126 77.508 C 280.617 77.008,279.705 76.345,279.100 76.032 C 278.495 75.720,278.000 75.315,278.000 75.132 C 278.000 74.950,277.722 74.800,277.383 74.800 C 277.044 74.800,276.380 74.440,275.908 74.000 C 275.436 73.560,274.801 73.200,274.497 73.200 C 273.899 73.200,270.285 70.853,270.067 70.323 C 269.993 70.145,269.609 70.000,269.212 70.000 C 268.206 70.000,266.350 68.983,266.706 68.627 C 266.868 68.466,266.820 68.370,266.600 68.414 C 265.658 68.604,264.772 68.369,265.006 67.990 C 265.145 67.765,265.111 67.606,264.930 67.637 C 264.013 67.797,263.182 67.553,263.406 67.190 C 263.545 66.965,263.511 66.806,263.330 66.837 C 262.441 66.992,261.673 66.728,260.892 66.000 C 260.420 65.560,259.587 65.200,259.040 65.200 C 258.494 65.200,257.936 65.020,257.800 64.800 C 257.664 64.580,257.193 64.400,256.753 64.400 C 256.250 64.400,256.059 64.228,256.238 63.938 C 256.396 63.682,256.350 63.584,256.133 63.718 C 255.918 63.850,255.240 63.698,254.626 63.380 C 254.011 63.061,253.259 62.800,252.954 62.800 C 252.649 62.800,252.400 62.620,252.400 62.400 C 252.400 62.180,251.860 62.000,251.200 62.000 C 250.540 62.000,250.000 61.820,250.000 61.600 C 250.000 61.380,249.460 61.200,248.800 61.200 C 248.140 61.200,247.600 61.020,247.600 60.800 C 247.600 60.580,247.060 60.400,246.400 60.400 C 245.740 60.400,245.200 60.240,245.200 60.045 C 245.200 59.850,244.660 59.580,244.000 59.445 C 243.340 59.310,242.260 59.090,241.600 58.955 C 240.940 58.820,240.400 58.550,240.400 58.355 C 240.400 58.160,239.680 58.000,238.800 58.000 C 237.920 58.000,237.200 57.820,237.200 57.600 C 237.200 57.380,236.480 57.200,235.600 57.200 C 234.720 57.200,234.000 57.020,234.000 56.800 C 234.000 56.580,233.291 56.400,232.424 56.400 C 231.557 56.400,230.736 56.220,230.600 56.000 C 230.464 55.780,229.273 55.600,227.953 55.600 C 226.633 55.600,225.645 55.450,225.758 55.268 C 225.871 55.085,224.937 54.895,223.682 54.845 C 222.427 54.796,221.340 54.585,221.267 54.378 C 221.193 54.170,219.528 54.000,217.567 54.000 C 215.456 54.000,214.000 53.837,214.000 53.600 C 214.000 53.342,209.467 53.200,201.200 53.200 C 192.933 53.200,188.400 53.342,188.400 53.600 M204.183 65.026 C 207.765 67.372,207.940 78.360,204.443 81.303 C 201.945 83.404,197.994 82.823,196.133 80.080 C 194.937 78.317,195.051 68.289,196.287 66.556 C 198.066 64.063,201.653 63.368,204.183 65.026 M205.008 95.604 C 211.709 98.476,212.400 100.621,212.400 118.562 L 212.400 132.000 213.472 132.000 C 214.061 132.000,215.096 132.168,215.772 132.373 C 216.447 132.578,217.810 132.959,218.800 133.220 C 230.641 136.338,244.892 145.743,251.801 155.000 C 252.458 155.880,253.100 156.690,253.228 156.800 C 254.143 157.588,258.404 164.625,260.131 168.200 C 262.512 173.131,265.600 183.272,265.600 186.162 C 265.600 188.419,265.539 188.400,272.810 188.400 C 283.616 188.400,288.400 191.830,288.400 199.578 C 288.400 207.487,283.733 210.790,272.549 210.796 C 264.480 210.800,264.693 210.730,264.034 213.616 C 263.555 215.712,262.246 219.487,261.865 219.868 C 261.719 220.014,261.600 220.377,261.600 220.674 C 261.600 222.893,254.861 233.870,250.150 239.325 C 243.756 246.728,232.534 254.594,224.600 257.234 C 223.720 257.527,222.820 257.877,222.600 258.011 C 222.380 258.146,221.390 258.481,220.400 258.755 C 219.410 259.030,218.060 259.408,217.400 259.596 C 216.202 259.937,213.901 260.395,209.433 261.183 C 206.355 261.725,195.334 261.720,192.224 261.175 C 187.661 260.375,182.600 259.134,179.800 258.129 C 178.260 257.576,176.660 257.023,176.243 256.900 C 175.827 256.778,173.847 255.834,171.843 254.804 C 158.205 247.791,148.412 237.878,142.028 224.622 C 124.222 187.649,144.178 144.072,184.000 132.972 C 185.870 132.451,187.802 132.019,188.292 132.012 C 189.563 131.995,189.580 131.804,189.696 116.600 L 189.800 103.000 191.040 100.800 C 193.925 95.678,199.952 93.436,205.008 95.604 M196.400 165.566 C 175.418 168.394,163.057 191.722,172.826 210.057 C 173.253 210.858,173.827 211.943,174.101 212.467 C 176.793 217.616,184.530 223.855,190.603 225.775 C 191.702 226.122,193.230 226.616,194.000 226.872 C 204.717 230.438,223.540 222.193,227.952 212.000 C 228.476 210.790,229.061 209.440,229.253 209.000 C 235.009 195.775,231.403 180.342,220.566 171.826 C 217.760 169.621,213.479 167.200,212.387 167.200 C 211.975 167.200,211.224 167.043,210.719 166.851 C 208.228 165.905,206.663 165.630,202.800 165.458 C 200.490 165.354,197.610 165.403,196.400 165.566 M83.547 193.904 C 86.344 196.564,86.148 200.059,83.063 202.556 L 81.526 203.800 76.200 203.800 L 70.874 203.800 69.337 202.563 C 67.031 200.708,66.405 198.596,67.428 196.128 C 68.782 192.861,69.897 192.400,76.442 192.400 L 81.966 192.400 83.547 193.904 M332.143 193.159 C 334.776 194.895,335.618 198.454,334.016 201.081 C 331.533 205.153,319.718 205.063,317.172 200.953 C 314.058 195.924,317.528 192.405,325.600 192.405 C 330.219 192.405,331.165 192.514,332.143 193.159 M203.975 314.355 C 208.201 317.362,207.944 328.955,203.600 331.295 C 200.859 332.771,197.354 331.622,195.901 328.772 C 195.182 327.362,194.932 319.406,195.540 317.299 C 196.503 313.961,201.145 312.342,203.975 314.355 " stroke="none" fill="#e5e5e5" fill-rule="evenodd"></path><path id="path3" d="M200.100 64.676 C 200.485 64.776,201.115 64.776,201.500 64.676 C 201.885 64.575,201.570 64.493,200.800 64.493 C 200.030 64.493,199.715 64.575,200.100 64.676 M197.231 66.031 C 196.554 66.708,196.005 67.473,196.011 67.731 C 196.016 67.989,196.312 67.731,196.668 67.158 C 197.024 66.584,197.784 65.824,198.358 65.468 C 198.931 65.112,199.189 64.816,198.931 64.811 C 198.673 64.805,197.908 65.354,197.231 66.031 M202.835 64.900 C 202.928 64.955,203.626 65.540,204.387 66.200 C 205.147 66.860,205.506 67.040,205.185 66.600 C 204.463 65.613,203.520 64.830,203.033 64.813 C 202.832 64.806,202.743 64.845,202.835 64.900 M205.920 72.738 C 206.090 79.875,204.496 82.404,200.200 81.819 C 198.908 81.643,198.743 81.687,199.345 82.046 C 201.022 83.046,204.247 81.727,205.618 79.478 C 206.426 78.153,206.800 69.248,206.094 68.138 C 205.932 67.883,205.854 69.953,205.920 72.738 M195.754 73.200 C 195.754 75.950,195.818 77.075,195.896 75.700 C 195.974 74.325,195.974 72.075,195.896 70.700 C 195.818 69.325,195.754 70.450,195.754 73.200 M196.013 79.020 C 196.029 79.518,196.801 80.454,197.800 81.188 C 198.404 81.632,198.356 81.484,197.606 80.588 C 197.059 79.935,196.474 79.229,196.306 79.020 C 196.113 78.780,196.005 78.780,196.013 79.020 M197.800 95.619 C 197.242 95.871,197.485 95.907,198.600 95.738 C 199.480 95.604,200.275 95.428,200.367 95.347 C 200.710 95.044,198.568 95.271,197.800 95.619 M201.633 95.343 C 201.725 95.421,202.430 95.601,203.200 95.742 C 204.185 95.923,204.422 95.882,204.000 95.606 C 203.458 95.250,201.237 95.003,201.633 95.343 M206.059 96.806 C 206.861 97.230,208.166 98.335,208.959 99.261 C 209.752 100.186,210.400 100.769,210.400 100.555 C 210.400 99.659,205.942 95.963,204.926 96.018 C 204.747 96.027,205.257 96.382,206.059 96.806 M193.800 97.823 C 193.054 98.456,192.915 98.691,193.433 98.443 C 194.176 98.087,195.525 96.797,195.149 96.802 C 195.067 96.803,194.460 97.263,193.800 97.823 M191.673 100.200 C 191.422 100.750,191.283 101.200,191.363 101.200 C 191.443 101.200,191.803 100.750,192.163 100.200 C 192.524 99.650,192.663 99.200,192.473 99.200 C 192.284 99.200,191.923 99.650,191.673 100.200 M211.375 104.400 C 211.931 108.517,212.101 165.596,211.559 166.253 C 211.076 166.838,211.081 166.903,211.600 166.730 C 212.305 166.495,212.266 105.441,211.560 103.847 C 211.263 103.176,211.225 103.291,211.375 104.400 M189.806 118.300 C 189.240 155.003,189.331 166.576,190.187 166.741 C 190.875 166.873,190.906 166.809,190.431 166.237 C 189.977 165.691,189.936 160.508,190.183 134.991 C 190.346 118.166,190.376 104.400,190.250 104.400 C 190.124 104.400,189.924 110.655,189.806 118.300 M195.200 165.200 C 194.138 165.424,194.041 165.502,194.800 165.524 C 195.350 165.541,196.520 165.405,197.400 165.223 C 198.734 164.947,198.800 164.893,197.800 164.899 C 197.140 164.902,195.970 165.038,195.200 165.200 M204.600 165.223 C 205.480 165.405,206.650 165.544,207.200 165.531 C 207.841 165.516,207.626 165.389,206.600 165.177 C 205.720 164.995,204.550 164.856,204.000 164.869 C 203.359 164.884,203.574 165.011,204.600 165.223 M231.660 189.500 C 231.708 190.707,231.752 190.785,231.887 189.900 L 232.053 188.800 249.127 188.794 C 260.297 188.790,265.993 188.654,265.600 188.400 C 265.237 188.166,258.391 188.010,248.300 188.006 L 231.600 188.000 231.660 189.500 M278.433 188.944 C 278.525 189.023,279.140 189.208,279.800 189.356 C 280.676 189.552,280.838 189.515,280.400 189.218 C 279.860 188.853,278.032 188.598,278.433 188.944 M282.927 190.795 C 283.981 191.463,285.337 192.819,286.005 193.873 C 287.248 195.833,287.616 195.954,286.634 194.080 C 285.985 192.841,283.810 190.706,282.526 190.048 C 280.832 189.179,281.066 189.614,282.927 190.795 M69.242 193.960 C 68.559 194.599,68.000 195.263,68.000 195.436 C 68.000 195.609,68.385 195.338,68.855 194.833 C 69.326 194.328,70.271 193.671,70.955 193.373 C 71.967 192.933,72.040 192.828,71.342 192.816 C 70.871 192.807,69.926 193.322,69.242 193.960 M232.142 196.200 C 232.141 198.180,232.208 199.040,232.292 198.112 C 232.376 197.184,232.377 195.564,232.295 194.512 C 232.212 193.460,232.143 194.220,232.142 196.200 M318.887 193.900 C 318.268 194.505,318.130 194.696,318.581 194.324 C 319.032 193.952,319.850 193.469,320.400 193.249 C 321.088 192.975,321.184 192.843,320.706 192.825 C 320.325 192.811,319.506 193.295,318.887 193.900 M331.034 193.369 C 332.401 193.964,334.000 195.771,334.000 196.721 C 334.000 197.058,334.106 197.227,334.237 197.097 C 335.173 196.161,332.070 192.764,330.326 192.816 C 330.037 192.824,330.355 193.073,331.034 193.369 M67.443 196.633 C 67.107 197.507,67.149 198.901,67.529 199.499 C 67.709 199.783,67.846 199.136,67.846 197.999 C 67.846 195.821,67.806 195.685,67.443 196.633 M287.458 197.200 C 287.775 198.925,288.002 199.251,287.994 197.967 C 287.991 197.435,287.811 196.730,287.594 196.400 C 287.318 195.978,287.277 196.215,287.458 197.200 M84.893 198.000 C 84.893 198.770,84.975 199.085,85.076 198.700 C 85.176 198.315,85.176 197.685,85.076 197.300 C 84.975 196.915,84.893 197.230,84.893 198.000 M316.816 199.175 C 316.773 200.731,320.245 203.889,321.079 203.054 C 321.219 202.914,321.058 202.800,320.721 202.800 C 319.771 202.800,317.964 201.201,317.369 199.834 C 317.073 199.155,316.824 198.859,316.816 199.175 M333.600 200.136 C 333.270 200.827,332.388 201.799,331.641 202.296 C 330.204 203.252,330.255 203.517,331.726 202.737 C 332.823 202.156,333.901 200.942,334.225 199.922 C 334.629 198.649,334.248 198.780,333.600 200.136 M83.668 201.154 L 82.737 202.600 83.816 201.543 C 84.410 200.962,84.829 200.311,84.748 200.098 C 84.666 199.884,84.181 200.359,83.668 201.154 M68.009 200.680 C 67.998 201.280,70.480 203.206,71.238 203.184 C 71.547 203.175,71.260 202.885,70.600 202.539 C 69.940 202.193,69.089 201.525,68.709 201.055 C 68.329 200.585,68.014 200.416,68.009 200.680 M287.646 201.267 C 287.621 201.634,287.496 202.264,287.370 202.667 C 287.152 203.362,287.163 203.363,287.597 202.687 C 287.848 202.296,287.973 201.666,287.873 201.287 C 287.711 200.668,287.688 200.666,287.646 201.267 M231.450 202.850 C 231.117 204.517,231.440 204.840,231.800 203.200 C 231.952 202.509,231.993 201.859,231.891 201.758 C 231.789 201.656,231.591 202.147,231.450 202.850 M74.700 203.493 C 75.635 203.577,77.165 203.577,78.100 203.493 C 79.035 203.409,78.270 203.340,76.400 203.340 C 74.530 203.340,73.765 203.409,74.700 203.493 M323.900 203.493 C 324.835 203.577,326.365 203.577,327.300 203.493 C 328.235 203.409,327.470 203.340,325.600 203.340 C 323.730 203.340,322.965 203.409,323.900 203.493 M285.916 205.441 C 285.318 206.410,283.984 207.735,282.938 208.398 C 280.969 209.647,280.842 210.018,282.720 209.034 C 283.981 208.373,286.096 206.205,286.784 204.866 C 287.625 203.231,287.041 203.618,285.916 205.441 M229.532 208.905 C 229.196 209.617,228.999 210.425,229.094 210.700 C 229.311 211.327,263.435 211.424,264.400 210.800 C 264.792 210.546,258.801 210.410,247.090 210.406 L 229.179 210.400 229.819 209.163 C 230.171 208.482,230.388 207.855,230.301 207.768 C 230.214 207.681,229.868 208.193,229.532 208.905 M279.200 210.000 C 278.376 210.264,278.341 210.326,279.000 210.354 C 279.440 210.373,280.070 210.213,280.400 210.000 C 281.101 209.547,280.614 209.547,279.200 210.000 M198.955 314.173 C 197.610 314.759,195.997 316.290,196.004 316.975 C 196.007 317.209,196.465 316.821,197.023 316.114 C 198.126 314.714,200.318 313.886,201.976 314.244 C 202.776 314.416,202.869 314.371,202.400 314.038 C 201.601 313.471,200.468 313.515,198.955 314.173 M204.327 315.532 C 205.849 316.954,206.129 318.417,205.939 323.969 C 205.857 326.374,205.924 328.129,206.089 327.870 C 206.548 327.147,206.455 318.598,205.973 317.326 C 205.503 316.085,204.072 314.400,203.488 314.400 C 203.283 314.400,203.660 314.909,204.327 315.532 M195.754 322.800 C 195.754 325.550,195.818 326.675,195.896 325.300 C 195.974 323.925,195.974 321.675,195.896 320.300 C 195.818 318.925,195.754 320.050,195.754 322.800 M200.305 331.483 C 200.802 331.579,201.522 331.575,201.905 331.475 C 202.287 331.375,201.880 331.296,201.000 331.301 C 200.120 331.305,199.807 331.387,200.305 331.483 " stroke="none" fill="#a4a4a4" fill-rule="evenodd"></path><path id="path4" d="M198.900 64.412 C 198.405 64.611,198.000 64.881,198.000 65.011 C 198.000 65.141,198.177 65.138,198.394 65.004 C 198.610 64.870,199.555 64.609,200.494 64.424 C 201.869 64.153,201.967 64.084,201.000 64.069 C 200.340 64.059,199.395 64.213,198.900 64.412 M203.299 64.978 C 203.903 65.293,204.623 65.668,204.899 65.810 C 205.174 65.953,204.950 65.698,204.400 65.244 C 203.850 64.789,203.130 64.415,202.800 64.411 C 202.470 64.408,202.694 64.663,203.299 64.978 M206.553 73.400 C 206.553 76.040,206.618 77.068,206.697 75.684 C 206.775 74.301,206.774 72.141,206.695 70.884 C 206.616 69.628,206.552 70.760,206.553 73.400 M195.611 78.800 C 195.615 79.130,195.989 79.850,196.444 80.400 C 196.898 80.950,197.153 81.174,197.010 80.899 C 195.819 78.594,195.606 78.274,195.611 78.800 M205.516 79.617 C 205.148 80.259,204.251 81.146,203.523 81.590 C 202.796 82.034,202.411 82.398,202.669 82.399 C 203.297 82.401,205.512 80.512,206.041 79.523 C 206.722 78.251,206.251 78.336,205.516 79.617 M199.491 95.089 C 200.201 95.177,201.461 95.179,202.291 95.092 C 203.121 95.005,202.540 94.933,201.000 94.931 C 199.460 94.929,198.781 95.000,199.491 95.089 M196.089 95.865 C 195.368 96.220,194.842 96.575,194.921 96.654 C 194.999 96.733,195.769 96.445,196.632 96.014 C 197.494 95.584,198.020 95.229,197.800 95.225 C 197.580 95.221,196.810 95.509,196.089 95.865 M192.770 98.300 L 191.800 99.400 193.000 98.400 C 193.660 97.850,194.275 97.355,194.367 97.300 C 194.458 97.245,194.355 97.200,194.136 97.200 C 193.918 97.200,193.303 97.695,192.770 98.300 M209.682 99.419 C 210.058 99.862,210.635 100.848,210.967 101.612 C 211.298 102.375,211.576 102.766,211.584 102.480 C 211.608 101.699,210.549 99.816,209.726 99.178 C 209.034 98.640,209.032 98.652,209.682 99.419 M189.694 117.467 C 189.593 131.676,189.562 131.994,188.257 132.012 C 184.677 132.063,174.533 135.936,167.400 139.977 C 152.055 148.669,139.660 166.684,136.424 185.000 C 131.847 210.906,144.461 238.908,166.600 251.985 C 168.934 253.364,175.363 256.640,176.243 256.900 C 176.660 257.023,178.260 257.576,179.800 258.129 C 182.600 259.134,187.661 260.375,192.224 261.175 C 195.334 261.720,206.355 261.725,209.433 261.183 C 213.901 260.395,216.202 259.937,217.400 259.596 C 218.060 259.408,219.410 259.030,220.400 258.755 C 221.390 258.481,222.380 258.146,222.600 258.011 C 222.820 257.877,223.720 257.527,224.600 257.234 C 232.534 254.594,243.756 246.728,250.150 239.325 C 254.861 233.870,261.600 222.893,261.600 220.674 C 261.600 220.377,261.719 220.014,261.865 219.868 C 262.246 219.487,263.555 215.712,264.034 213.616 C 264.691 210.738,264.475 210.810,272.749 210.710 L 280.200 210.619 272.844 210.500 C 265.087 210.375,263.600 210.661,263.600 212.281 C 263.600 212.906,263.061 214.822,262.385 216.600 C 262.218 217.040,261.861 218.030,261.593 218.800 C 261.325 219.570,260.696 221.100,260.196 222.200 C 259.695 223.300,258.962 224.920,258.566 225.800 C 257.823 227.453,253.985 233.387,251.840 236.200 C 248.818 240.163,237.109 250.800,235.770 250.800 C 235.646 250.800,234.792 251.306,233.872 251.925 C 232.262 253.009,229.566 254.367,226.200 255.791 C 225.320 256.163,224.287 256.632,223.905 256.834 C 223.523 257.035,222.859 257.200,222.429 257.200 C 221.999 257.200,221.536 257.380,221.400 257.600 C 221.264 257.820,220.724 258.000,220.200 258.000 C 219.676 258.000,219.136 258.180,219.000 258.400 C 218.864 258.620,218.169 258.800,217.456 258.800 C 216.743 258.800,215.989 258.962,215.780 259.159 C 214.449 260.417,201.022 261.240,194.200 260.483 C 189.377 259.947,184.607 259.067,183.000 258.415 C 182.560 258.237,181.390 257.859,180.400 257.576 C 179.410 257.293,178.429 256.912,178.220 256.730 C 178.011 256.549,177.561 256.396,177.220 256.392 C 176.616 256.383,170.612 253.473,167.400 251.631 C 162.145 248.619,153.545 240.927,149.816 235.906 C 148.793 234.528,147.695 233.083,147.378 232.695 C 147.060 232.308,146.800 231.890,146.800 231.767 C 146.800 231.645,146.297 230.792,145.681 229.872 C 145.066 228.952,143.785 226.580,142.833 224.600 C 141.013 220.810,140.773 220.252,140.000 218.000 C 139.736 217.230,139.371 216.240,139.190 215.800 C 139.009 215.360,138.757 214.505,138.630 213.900 C 138.504 213.295,138.296 212.305,138.170 211.700 C 138.043 211.095,137.782 210.240,137.589 209.800 C 136.949 208.339,136.714 204.686,136.714 196.200 C 136.714 187.714,136.949 184.061,137.589 182.600 C 137.782 182.160,138.043 181.305,138.170 180.700 C 138.296 180.095,138.504 179.105,138.630 178.500 C 138.757 177.895,139.009 177.040,139.190 176.600 C 139.371 176.160,139.736 175.170,140.000 174.400 C 145.325 158.892,157.684 145.258,173.200 137.776 C 174.850 136.980,176.513 136.165,176.895 135.965 C 177.277 135.764,177.864 135.600,178.200 135.600 C 178.536 135.600,179.168 135.420,179.605 135.200 C 180.042 134.980,180.758 134.620,181.195 134.400 C 181.632 134.180,182.521 134.000,183.171 134.000 C 183.821 134.000,184.464 133.820,184.600 133.600 C 184.736 133.380,185.265 133.200,185.775 133.200 C 189.998 133.200,190.049 133.003,189.906 117.200 L 189.789 104.200 189.694 117.467 M212.095 118.113 C 212.007 131.061,212.048 132.040,212.700 132.242 C 213.085 132.361,213.713 132.625,214.095 132.829 C 214.477 133.033,215.321 133.200,215.971 133.200 C 216.621 133.200,217.264 133.380,217.400 133.600 C 217.536 133.820,218.042 134.003,218.524 134.006 C 219.481 134.013,222.220 134.887,222.659 135.326 C 222.810 135.477,223.175 135.600,223.471 135.600 C 224.463 135.600,230.756 138.539,233.072 140.084 C 233.992 140.698,234.892 141.204,235.072 141.208 C 236.248 141.237,245.787 149.232,248.883 152.784 C 252.548 156.987,252.837 157.344,253.521 158.500 C 253.880 159.105,254.314 159.600,254.486 159.600 C 254.659 159.600,254.800 159.797,254.800 160.038 C 254.800 160.279,255.139 160.954,255.553 161.538 C 257.302 164.003,260.468 170.321,261.598 173.600 C 261.864 174.370,262.222 175.360,262.395 175.800 C 262.567 176.240,262.922 177.410,263.182 178.400 C 263.441 179.390,263.822 180.753,264.027 181.428 C 264.232 182.104,264.400 183.073,264.400 183.582 C 264.400 184.675,265.205 187.650,265.636 188.148 C 267.394 190.184,262.923 173.982,260.131 168.200 C 258.404 164.625,254.143 157.588,253.228 156.800 C 253.100 156.690,252.458 155.880,251.801 155.000 C 244.892 145.743,230.641 136.338,218.800 133.220 C 217.810 132.959,216.447 132.578,215.772 132.373 C 215.096 132.168,214.063 132.000,213.477 132.000 L 212.410 132.000 212.300 118.100 L 212.189 104.200 212.095 118.113 M200.305 165.083 C 200.802 165.179,201.522 165.175,201.905 165.075 C 202.287 164.975,201.880 164.896,201.000 164.901 C 200.120 164.905,199.807 164.987,200.305 165.083 M211.794 166.834 C 211.102 167.104,211.138 167.147,212.068 167.172 C 217.833 167.324,227.853 177.738,230.763 186.602 C 231.431 188.638,231.553 188.808,231.575 187.724 C 231.589 187.022,231.420 186.336,231.200 186.200 C 230.980 186.064,230.800 185.628,230.800 185.232 C 230.800 184.516,227.830 178.423,227.282 178.014 C 227.124 177.896,226.468 177.093,225.823 176.229 C 223.809 173.530,217.755 168.400,216.584 168.400 C 216.441 168.400,215.846 168.067,215.262 167.661 C 213.896 166.710,212.788 166.446,211.794 166.834 M187.000 167.324 C 186.560 167.586,186.110 167.899,186.000 168.021 C 185.890 168.142,185.170 168.539,184.400 168.902 C 183.630 169.265,182.547 169.989,181.993 170.511 C 181.440 171.032,180.483 171.789,179.868 172.192 C 178.583 173.034,174.473 178.018,173.593 179.800 C 173.268 180.460,172.901 181.090,172.778 181.200 C 172.353 181.581,170.800 185.194,170.800 185.801 C 170.800 186.136,170.642 186.723,170.449 187.105 C 168.673 190.621,168.673 201.779,170.449 205.295 C 170.642 205.677,170.800 206.333,170.800 206.754 C 170.800 207.452,171.367 208.640,173.994 213.451 C 175.645 216.474,180.934 221.563,184.500 223.560 C 185.325 224.022,186.635 224.760,187.412 225.200 C 188.189 225.640,189.168 226.000,189.589 226.000 C 190.009 226.000,190.451 226.159,190.571 226.354 C 191.548 227.934,207.017 228.623,208.580 227.157 C 208.789 226.960,209.453 226.800,210.056 226.800 C 210.659 226.800,211.264 226.620,211.400 226.400 C 211.536 226.180,211.991 226.000,212.411 226.000 C 213.142 226.000,213.718 225.721,217.449 223.557 C 221.062 221.461,226.788 215.958,227.560 213.839 C 227.648 213.598,227.832 213.310,227.968 213.200 C 228.438 212.821,229.182 210.800,228.852 210.800 C 228.670 210.800,228.181 211.565,227.766 212.500 C 225.560 217.461,216.711 224.176,209.400 226.436 C 206.157 227.438,196.522 227.711,194.000 226.872 C 193.230 226.616,191.702 226.122,190.603 225.775 C 184.530 223.855,176.793 217.616,174.101 212.467 C 173.827 211.943,173.253 210.858,172.826 210.057 C 164.681 194.769,173.867 171.001,189.400 167.177 L 190.600 166.882 189.200 166.864 C 188.430 166.855,187.440 167.061,187.000 167.324 M269.700 188.698 C 271.625 188.771,274.775 188.771,276.700 188.698 C 278.625 188.625,277.050 188.565,273.200 188.565 C 269.350 188.565,267.775 188.625,269.700 188.698 M283.485 190.622 C 284.192 191.179,285.336 192.302,286.027 193.117 C 286.718 193.933,287.096 194.229,286.867 193.775 C 286.407 192.861,282.997 189.597,282.509 189.604 C 282.339 189.607,282.778 190.065,283.485 190.622 M79.600 192.556 C 79.600 192.642,80.217 192.785,80.972 192.873 C 81.727 192.961,82.256 192.890,82.148 192.716 C 81.955 192.403,79.600 192.255,79.600 192.556 M319.376 193.030 C 318.949 193.376,318.854 193.527,319.165 193.366 C 319.476 193.204,320.286 192.939,320.965 192.777 C 322.100 192.506,322.118 192.479,321.176 192.441 C 320.614 192.418,319.804 192.683,319.376 193.030 M68.922 193.829 L 67.800 194.858 69.100 193.954 C 69.815 193.457,70.400 192.993,70.400 192.925 C 70.400 192.609,69.958 192.880,68.922 193.829 M316.814 195.574 C 316.190 196.740,316.314 199.739,317.022 200.624 C 317.623 201.374,317.630 201.370,317.222 200.526 C 316.682 199.408,316.677 196.577,317.214 195.574 C 317.442 195.148,317.538 194.800,317.428 194.800 C 317.318 194.800,317.042 195.148,316.814 195.574 M334.520 198.000 C 334.520 199.210,334.595 199.705,334.687 199.100 C 334.778 198.495,334.778 197.505,334.687 196.900 C 334.595 196.295,334.520 196.790,334.520 198.000 M85.293 198.000 C 85.293 198.770,85.375 199.085,85.476 198.700 C 85.576 198.315,85.576 197.685,85.476 197.300 C 85.375 196.915,85.293 197.230,85.293 198.000 M288.134 199.600 C 288.134 201.250,288.205 201.925,288.291 201.100 C 288.378 200.275,288.378 198.925,288.291 198.100 C 288.205 197.275,288.134 197.950,288.134 199.600 M67.201 199.962 C 67.199 200.996,70.340 203.605,71.517 203.546 C 72.558 203.493,72.563 203.484,71.629 203.308 C 70.212 203.042,68.791 202.004,67.945 200.617 C 67.537 199.948,67.202 199.653,67.201 199.962 M332.802 201.927 C 331.806 202.977,331.682 203.219,332.373 202.771 C 333.198 202.235,334.791 200.346,334.349 200.427 C 334.267 200.443,333.571 201.118,332.802 201.927 M81.000 203.200 L 79.800 203.505 80.876 203.553 C 81.468 203.579,82.064 203.420,82.200 203.200 C 82.336 202.980,82.392 202.821,82.324 202.847 C 82.256 202.873,81.660 203.032,81.000 203.200 M74.512 203.895 C 75.564 203.977,77.184 203.976,78.112 203.892 C 79.040 203.808,78.180 203.741,76.200 203.742 C 74.220 203.743,73.460 203.812,74.512 203.895 M324.112 203.895 C 325.164 203.977,326.784 203.976,327.712 203.892 C 328.640 203.808,327.780 203.741,325.800 203.742 C 323.820 203.743,323.060 203.812,324.112 203.895 M197.800 314.400 C 196.236 315.436,196.792 315.437,198.490 314.401 C 199.211 313.962,199.620 313.604,199.400 313.604 C 199.180 313.605,198.460 313.963,197.800 314.400 M203.504 314.398 C 204.221 314.835,205.165 315.779,205.602 316.496 C 206.039 317.213,206.398 317.554,206.399 317.253 C 206.400 316.542,203.458 313.600,202.747 313.601 C 202.446 313.602,202.787 313.961,203.504 314.398 M206.553 322.600 C 206.553 325.240,206.618 326.268,206.697 324.884 C 206.775 323.501,206.774 321.341,206.695 320.084 C 206.616 318.828,206.552 319.960,206.553 322.600 M195.612 328.294 C 195.605 328.565,196.095 329.294,196.700 329.913 C 197.305 330.532,197.510 330.670,197.155 330.219 C 196.800 329.769,196.310 329.040,196.067 328.600 C 195.823 328.160,195.619 328.022,195.612 328.294 M204.011 330.620 C 203.247 331.159,202.797 331.599,203.011 331.598 C 203.225 331.597,203.940 331.153,204.600 330.612 C 206.141 329.349,205.805 329.353,204.011 330.620 " stroke="none" fill="#b4b4b4" fill-rule="evenodd"></path></g></svg>